<?xml version="1.0" encoding="utf-8"?> <!-- Generated by Layerhero SVG Exporter: http://www.layerhero.com/photoshop-svg-exporter --><!DOCTYPE svg PUBLIC "-//W3C//DTD SVG 1.1//EN" "http://www.w3.org/Graphics/SVG/1.1/DTD/svg11.dtd"><svg version="1.1" baseProfile="full" xmlns="http://www.w3.org/2000/svg" xmlns:xlink="http://www.w3.org/1999/xlink" xmlns:ev="http://www.w3.org/2001/xml-events" width="33" height="32" viewBox="0 0 33 32"><g transform="scale(NaN)" ><path fill-rule="evenodd"  fill="rgb( 84, 18, 0 )" d="M16.500,31.998 C7.677,31.998 0.499,24.821 0.499,15.998 C0.499,7.176 7.677,-0.002 16.500,-0.002 C25.322,-0.002 32.500,7.176 32.500,15.998 C32.500,24.821 25.322,31.998 16.500,31.998 ZM16.500,1.682 C8.606,1.682 2.184,8.104 2.184,15.998 C2.184,23.892 8.606,30.313 16.500,30.313 C24.393,30.313 30.816,23.892 30.816,15.998 C30.816,8.104 24.393,1.682 16.500,1.682 ZM19.630,13.625 C19.630,13.625 19.385,16.002 19.385,16.002 C19.385,16.002 17.497,16.002 17.497,16.002 C17.497,19.019 17.497,22.734 17.497,22.734 C17.497,22.734 14.699,22.734 14.699,22.734 C14.699,22.734 14.699,19.058 14.699,16.002 C14.699,16.002 13.369,16.002 13.369,16.002 C13.369,16.002 13.369,13.625 13.369,13.625 C13.369,13.625 14.699,13.625 14.699,13.625 C14.699,13.625 14.699,12.085 14.699,12.085 C14.699,10.983 15.222,9.261 17.523,9.261 C17.523,9.261 19.595,9.269 19.595,9.269 C19.595,9.269 19.595,11.579 19.595,11.579 C19.595,11.579 18.335,11.579 18.091,11.579 C17.846,11.579 17.497,11.700 17.497,12.226 C17.497,12.226 17.497,13.625 17.497,13.625 C17.497,13.625 19.630,13.625 19.630,13.625 Z"/></g></svg>