<?xml version="1.0" encoding="utf-8"?> <!-- Generated by Layerhero SVG Exporter: http://www.layerhero.com/photoshop-svg-exporter --><!DOCTYPE svg PUBLIC "-//W3C//DTD SVG 1.1//EN" "http://www.w3.org/Graphics/SVG/1.1/DTD/svg11.dtd"><svg version="1.1" baseProfile="full" xmlns="http://www.w3.org/2000/svg" xmlns:xlink="http://www.w3.org/1999/xlink" xmlns:ev="http://www.w3.org/2001/xml-events" width="33" height="32" viewBox="0 0 33 32"><g transform="scale(NaN)" ><path fill-rule="evenodd"  fill="rgb( 84, 18, 0 )" d="M20.911,14.998 C20.911,14.998 19.912,14.998 19.912,14.998 C19.985,15.281 20.028,15.576 20.028,15.880 C20.028,17.829 18.449,19.409 16.499,19.409 C14.551,19.409 12.972,17.829 12.972,15.880 C12.972,15.576 13.015,15.281 13.088,14.998 C13.088,14.998 12.089,14.998 12.089,14.998 C12.089,14.998 12.089,19.849 12.089,19.849 C12.089,20.093 12.287,20.291 12.531,20.291 C12.531,20.291 20.469,20.291 20.469,20.291 C20.713,20.291 20.911,20.093 20.911,19.849 C20.911,19.849 20.911,14.998 20.911,14.998 ZM20.911,11.911 C20.911,11.668 20.713,11.469 20.469,11.469 C20.469,11.469 19.146,11.469 19.146,11.469 C18.903,11.469 18.705,11.668 18.705,11.911 C18.705,11.911 18.705,13.234 18.705,13.234 C18.705,13.477 18.903,13.675 19.146,13.675 C19.146,13.675 20.469,13.675 20.469,13.675 C20.713,13.675 20.911,13.477 20.911,13.234 C20.911,13.234 20.911,11.911 20.911,11.911 ZM16.499,13.675 C15.282,13.675 14.294,14.662 14.294,15.880 C14.294,17.098 15.282,18.086 16.499,18.086 C17.718,18.086 18.705,17.098 18.705,15.880 C18.705,14.662 17.718,13.675 16.499,13.675 M20.911,21.615 C20.911,21.615 12.089,21.615 12.089,21.615 C11.358,21.615 10.766,21.022 10.766,20.291 C10.766,20.291 10.766,11.469 10.766,11.469 C10.766,10.739 11.358,10.147 12.089,10.147 C12.089,10.147 20.911,10.147 20.911,10.147 C21.642,10.147 22.234,10.739 22.234,11.469 C22.234,11.469 22.234,20.291 22.234,20.291 C22.234,21.022 21.642,21.615 20.911,21.615 M16.499,31.998 C7.677,31.998 0.499,24.821 0.499,15.998 C0.499,7.176 7.677,-0.002 16.499,-0.002 C25.322,-0.002 32.500,7.176 32.500,15.998 C32.500,24.821 25.322,31.998 16.499,31.998 ZM16.499,1.682 C8.606,1.682 2.184,8.104 2.184,15.998 C2.184,23.892 8.606,30.313 16.499,30.313 C24.394,30.313 30.816,23.892 30.816,15.998 C30.816,8.104 24.394,1.682 16.499,1.682 Z"/></g></svg>