<?xml version="1.0" encoding="utf-8"?> <!-- Generated by Layerhero SVG Exporter: http://www.layerhero.com/photoshop-svg-exporter --><!DOCTYPE svg PUBLIC "-//W3C//DTD SVG 1.1//EN" "http://www.w3.org/Graphics/SVG/1.1/DTD/svg11.dtd"><svg version="1.1" baseProfile="full" xmlns="http://www.w3.org/2000/svg" xmlns:xlink="http://www.w3.org/1999/xlink" xmlns:ev="http://www.w3.org/2001/xml-events" width="33" height="32" viewBox="0 0 33 32"><g transform="scale(NaN)" ><path fill-rule="evenodd"  fill="rgb( 84, 18, 0 )" d="M16.500,31.998 C7.677,31.998 0.499,24.821 0.499,15.998 C0.499,7.176 7.677,-0.002 16.500,-0.002 C25.322,-0.002 32.500,7.176 32.500,15.998 C32.500,24.821 25.322,31.998 16.500,31.998 ZM16.500,1.682 C8.606,1.682 2.184,8.104 2.184,15.998 C2.184,23.892 8.606,30.313 16.500,30.313 C24.394,30.313 30.816,23.892 30.816,15.998 C30.816,8.104 24.394,1.682 16.500,1.682 ZM16.307,21.998 C15.491,21.998 14.800,21.252 14.236,19.758 C13.859,18.389 13.482,17.021 13.106,15.652 C12.687,14.160 12.238,13.413 11.757,13.413 C11.652,13.413 11.286,13.631 10.658,14.066 C10.658,14.066 9.999,13.225 9.999,13.225 C10.690,12.624 11.372,12.022 12.043,11.420 C12.964,10.630 13.656,10.215 14.117,10.174 C15.207,10.070 15.878,10.808 16.129,12.388 C16.401,14.092 16.590,15.153 16.695,15.568 C17.009,16.982 17.355,17.688 17.732,17.688 C18.026,17.688 18.466,17.229 19.053,16.312 C19.639,15.394 19.953,14.697 19.995,14.217 C20.079,13.425 19.765,13.028 19.053,13.028 C18.717,13.028 18.372,13.105 18.016,13.256 C18.705,11.023 20.019,9.938 21.960,10.000 C23.398,10.042 24.077,10.966 23.994,12.774 C23.931,14.124 22.979,15.973 21.138,18.321 C19.235,20.772 17.624,21.998 16.307,21.998 Z"/></g></svg>