<?xml version="1.0" encoding="utf-8"?> <!-- Generated by Layerhero SVG Exporter: http://www.layerhero.com/photoshop-svg-exporter --><!DOCTYPE svg PUBLIC "-//W3C//DTD SVG 1.1//EN" "http://www.w3.org/Graphics/SVG/1.1/DTD/svg11.dtd"><svg version="1.1" baseProfile="full" xmlns="http://www.w3.org/2000/svg" xmlns:xlink="http://www.w3.org/1999/xlink" xmlns:ev="http://www.w3.org/2001/xml-events" width="33" height="32" viewBox="0 0 33 32"><g transform="scale(NaN)" ><path fill-rule="evenodd"  fill="rgb( 84, 18, 0 )" d="M16.500,31.998 C7.677,31.998 0.499,24.821 0.499,15.998 C0.499,7.176 7.677,-0.002 16.500,-0.002 C25.322,-0.002 32.500,7.176 32.500,15.998 C32.500,24.821 25.322,31.998 16.500,31.998 ZM16.500,1.682 C8.606,1.682 2.184,8.104 2.184,15.998 C2.184,23.892 8.606,30.313 16.500,30.313 C24.394,30.313 30.816,23.892 30.816,15.998 C30.816,8.104 24.394,1.682 16.500,1.682 ZM19.823,20.694 C19.400,21.026 18.936,21.262 18.431,21.402 C17.926,21.544 17.283,21.615 16.503,21.615 C16.503,21.615 12.007,21.615 12.007,21.615 C12.007,21.615 12.007,10.381 12.007,10.381 C12.007,10.381 15.975,10.381 15.975,10.381 C16.800,10.381 17.425,10.412 17.849,10.475 C18.275,10.538 18.673,10.670 19.047,10.871 C19.448,11.087 19.749,11.377 19.948,11.739 C20.145,12.101 20.244,12.519 20.244,12.991 C20.244,13.539 20.107,14.027 19.833,14.455 C19.560,14.883 19.181,15.197 18.699,15.398 C18.699,15.398 18.699,15.459 18.699,15.459 C19.392,15.604 19.948,15.902 20.365,16.353 C20.783,16.802 20.992,17.410 20.992,18.174 C20.992,18.733 20.885,19.223 20.674,19.645 C20.464,20.067 20.179,20.418 19.823,20.694 ZM17.239,12.999 C17.145,12.808 17.002,12.670 16.805,12.584 C16.619,12.503 16.399,12.460 16.145,12.452 C15.891,12.444 15.512,12.440 15.010,12.440 C15.010,12.440 14.813,12.440 14.813,12.440 C14.813,12.440 14.813,14.817 14.813,14.817 C14.813,14.817 15.168,14.817 15.168,14.817 C15.651,14.817 15.989,14.811 16.182,14.802 C16.376,14.792 16.576,14.739 16.783,14.644 C17.009,14.538 17.165,14.393 17.250,14.206 C17.336,14.020 17.379,13.804 17.379,13.557 C17.379,13.376 17.332,13.190 17.239,12.999 ZM17.876,17.306 C17.736,17.111 17.525,16.962 17.242,16.862 C17.072,16.796 16.836,16.759 16.537,16.753 C16.237,16.745 15.837,16.741 15.334,16.741 C15.334,16.741 14.813,16.741 14.813,16.741 C14.813,16.741 14.813,19.555 14.813,19.555 C14.813,19.555 14.964,19.555 14.964,19.555 C15.699,19.555 16.206,19.550 16.489,19.540 C16.769,19.530 17.056,19.462 17.349,19.336 C17.605,19.225 17.792,19.063 17.910,18.849 C18.028,18.635 18.088,18.392 18.088,18.121 C18.088,17.774 18.018,17.503 17.876,17.306 Z"/></g></svg>